# xmcd
#
# Track frame offsets:
#	150
#	24518
#	44133
#	60500
#	80333
#	104163
#	122448
#	144425
#	166580
#	183500
#	204135
#	227698
#	250400
#	271750
#	291543
#	311828
#
# Disc length: 4436 seconds
#
# Revision: 7
# Processed by: cddbd v1.5.2PL0 Copyright (c) Steve Scherf et al.
# Submitted via: audiograbber 1.83.01
#
DISCID=e2115210
DTITLE=Gil, Gilberto - Acoustic
DYEAR=1994
DGENRE=Brasilien Folk
TTITLE0=A novidade
TTITLE1=Tenho sede
TTITLE2=Refazenda
TTITLE3=Realce
TTITLE4=Esotérico
TTITLE5=Drão
TTITLE6=A paz  (Leila IV)
TTITLE7=Beira mar
TTITLE8=Sampa
TTITLE9=Parabolicamará
TTITLE10=The secret life of plants
TTITLE11=Tempo rei
TTITLE12=Expresso 2222
TTITLE13=Aquele abraço
TTITLE14=Palco
TTITLE15=Toda menina baiana
EXTD=
EXTT0=
EXTT1=
EXTT2=
EXTT3=
EXTT4=
EXTT5=
EXTT6=
EXTT7=
EXTT8=
EXTT9=
EXTT10=
EXTT11=
EXTT12=
EXTT13=
EXTT14=
EXTT15=
PLAYORDER=
